<?xml version="1.0" encoding="UTF-8"?>
<svg width="81px" height="90px" viewBox="0 0 81 90" version="1.1" xmlns="http://www.w3.org/2000/svg" xmlns:xlink="http://www.w3.org/1999/xlink">
    <!-- Generator: Sketch 52.2 (67145) - http://www.bohemiancoding.com/sketch -->
    <title>noun_Location_532305</title>
    <desc>Created with Sketch.</desc>
    <g id="Symbols" stroke="none" stroke-width="1" fill="none" fill-rule="evenodd">
        <g id="Action-bar" transform="translate(-1091.000000, -52.000000)" fill="#77767E">
            <g id="noun_Location_532305" transform="translate(1091.000000, 52.000000)">
                <path d="M64.5103341,44.0565593 L59.1639152,44 C58.5941765,44.9857473 57.9940205,45.9968885 57.3634473,47.0334237 L62.3167815,47.0865201 L76.622254,86.948108 L4.33796958,86.948108 L18.2421682,47.0980628 L23.677499,47.0980628 C23.0410763,46.0557563 22.4374106,45.0376895 21.8606525,44.0461708 L16.0345769,44.0461708 L0,90 L81,90 L64.5103341,44.0565593 Z" id="Path"></path>
                <path d="M40.5034887,66 L39.2882468,64.3796639 C39.2359159,64.3083739 33.9435084,57.2265021 28.7255272,48.7611219 C21.6096754,37.2181905 18,28.6778954 18,23.3782725 C18,20.2233898 18.5942475,17.1615466 19.7687875,14.2773242 C20.9026256,11.4933909 22.5237234,8.99220094 24.590216,6.84746073 C26.6555458,4.70030391 29.0627713,3.01471934 31.7409551,1.83783091 C34.5156605,0.618651825 37.4624767,0 40.5011629,0 C43.5363603,0 46.4843395,0.618651825 49.257882,1.83783091 C51.9383916,3.01592765 54.3444542,4.70151221 56.409784,6.84746073 C58.4762766,8.99340925 60.0973744,11.4933909 61.2312125,14.2773242 C62.4057525,17.1615466 63,20.2233898 63,23.3782725 C63,28.6778954 59.3903246,37.2181905 52.2744728,48.7611219 C47.0564916,57.2265021 41.7640841,64.3083739 41.7105902,64.3796639 L40.5034887,66 Z M40.5034887,3.19475669 C29.7895907,3.19475669 21.0758993,12.2497895 21.0758993,23.3794808 C21.0758993,27.9915785 24.6158001,36.1742155 31.3141668,47.0392882 C34.9715216,52.9672293 38.6556233,58.2016037 40.5023258,60.7583757 C42.3501912,58.1979788 46.0447591,52.9527297 49.7021139,47.0199553 C56.3923403,36.1645491 59.9275894,27.9903702 59.9275894,23.3806891 C59.9275894,12.2497895 51.2138981,3.19475669 40.5034887,3.19475669 Z M40.5,31.1899601 C35.9786024,31.1899601 32.3026411,27.3693017 32.3026411,22.6726228 C32.3026411,17.9759438 35.9786024,14.1528688 40.5,14.1528688 C45.0213976,14.1528688 48.6996847,17.9759438 48.6996847,22.6726228 C48.6996847,27.3693017 45.0213976,31.1899601 40.5,31.1899601 Z M40.5,17.3488338 C37.6752894,17.3488338 35.3773775,19.7364432 35.3773775,22.6726228 C35.3773775,25.607594 37.6764523,27.9964117 40.5,27.9964117 C43.3258735,27.9964117 45.6237854,25.607594 45.6237854,22.6726228 C45.6237854,19.7364432 43.3258735,17.3488338 40.5,17.3488338 Z" id="Shape" fill-rule="nonzero"></path>
            </g>
        </g>
    </g>
</svg>