<?xml version="1.0" encoding="UTF-8"?>
<svg width="105px" height="78px" viewBox="0 0 105 78" version="1.1" xmlns="http://www.w3.org/2000/svg" xmlns:xlink="http://www.w3.org/1999/xlink">
    <!-- Generator: Sketch 52.2 (67145) - http://www.bohemiancoding.com/sketch -->
    <title>noun_Flight_2048113</title>
    <desc>Created with Sketch.</desc>
    <g id="Symbols" stroke="none" stroke-width="1" fill="none" fill-rule="evenodd">
        <g id="Action-bar" transform="translate(-835.000000, -64.000000)" fill="#77767E">
            <g id="noun_Flight_2048113" transform="translate(835.000000, 64.000000)">
                <path d="M22.8651943,8.60237928 C24.934858,7.46905649 26.6915296,6.34682077 27.6284947,5.72713735 L51.7137164,13.6881216 C52.306964,13.884256 52.9580886,13.7437857 53.4218179,13.3196247 C53.8855471,12.8954637 54.0914295,12.2520521 53.9619111,11.6317568 C53.8323927,11.0114615 53.3871505,10.5085201 52.7939029,10.3123858 L27.9066695,2.08664629 C27.3916062,1.91688504 26.8282243,1.99931668 26.3811771,2.30984987 C26.3579935,2.32579197 24.0680581,3.91244955 21.2093991,5.4776144 C20.0437522,6.03014314 19.2201071,7.13017962 19.0067512,8.41940715 C18.9256982,10.1341085 19.5775804,11.8007624 20.7947764,12.9908145 C20.8698117,13.0683721 20.9517665,13.1386835 21.0395865,13.2008442 L33.0238823,21.6816999 C33.5357525,22.0440022 34.1988946,22.1012068 34.7635094,21.8317652 C35.3281241,21.5623237 35.7084332,21.0071706 35.7611777,20.3754268 C35.8139222,19.743683 35.5310892,19.1313254 35.0192189,18.7690232 L23.1903926,10.3983852 C22.8067919,10.0011946 22.5519337,9.4942104 22.4600406,8.94551059 C22.4703615,8.87964119 22.6121583,8.74032173 22.8651943,8.60237928 Z" id="Path"></path>
                <path d="M9.29783796,50.1020161 C9.40858023,50.379606 9.58453535,50.6245799 9.80992896,50.814976 C18.7546638,58.356179 31.9088579,53.4404657 32.5226857,53.2049321 L48.4772265,46.4141484 L44.8788219,75.9643711 C44.7979327,76.6306532 45.0819177,77.2883039 45.61668,77.6730985 C46.1514423,78.0578931 46.8492075,78.1066723 47.4296339,77.7998382 L60.0421746,71.1257784 C60.3860855,70.9433122 60.6621515,70.6495514 60.8278444,70.28975 L78.7111341,31.3875984 C84.5250986,27.1097747 90.6160638,23.2453132 96.9415567,19.8211613 C106.201807,15.2010962 104.973475,9.11479839 104.916364,8.85804361 C104.883269,8.70866907 104.831998,8.56418573 104.763765,8.42801376 C101.382709,1.40076018 93.3479858,-1.80878221 86.244659,1.03039068 C86.2006673,1.04736764 86.1566757,1.06645948 86.1140636,1.08697089 L21.3934732,32.3891666 L7.81448165,22.6085839 C7.30712277,22.2427685 6.65007451,22.1788141 6.08505363,22.4402484 L1.03973892,24.7707996 C0.173080525,25.1704355 -0.228607507,26.2059664 0.132412836,27.1098392 L9.29783796,50.1020161 Z M6.61503691,26.1649672 L20.210513,35.9575003 C20.7267612,36.3302607 21.3975856,36.3896494 21.9681238,36.1131031 L87.5356204,4.40138902 C88.4147637,4.08593915 96.9869561,1.27796168 101.490603,9.80591418 C101.513282,10.6037444 101.192966,13.6755455 95.4060017,16.5633813 C88.7676484,20.1525216 82.3802795,24.2130404 76.2902559,28.7154656 C76.048049,28.8945131 75.8540862,29.1340174 75.7266137,29.4114485 L57.901759,68.1855052 L48.7851822,73.0099891 L52.3450712,43.7766648 C52.4228342,43.1370822 52.1643317,42.5031777 51.666315,42.1122068 C51.1682984,41.7212358 50.5058504,41.6321427 49.9269099,41.8782728 L31.2366091,49.834658 C31.1197673,49.8785055 19.7870951,54.1187618 12.379309,48.2892188 L4.03464843,27.3567294 L6.61503691,26.1649672 Z" id="Shape" fill-rule="nonzero"></path>
            </g>
        </g>
    </g>
</svg>