<?xml version="1.0" encoding="UTF-8"?>
<svg width="86px" height="91px" viewBox="0 0 86 91" version="1.1" xmlns="http://www.w3.org/2000/svg" xmlns:xlink="http://www.w3.org/1999/xlink">
    <!-- Generator: Sketch 52.2 (67145) - http://www.bohemiancoding.com/sketch -->
    <title>Group 4</title>
    <desc>Created with Sketch.</desc>
    <g id="Symbols" stroke="none" stroke-width="1" fill="none" fill-rule="evenodd">
        <g id="Action-bar" transform="translate(-326.000000, -52.000000)" stroke="#77767E" stroke-width="4">
            <g id="Group-4" transform="translate(328.000000, 54.000000)">
                <g id="event-(1)" transform="translate(0.000000, 0.225892)" fill-rule="nonzero">
                    <path d="M72.8888414,5.00006328 L68.3333689,5.00006328 L68.3333689,-6.95624114e-15 L59.2222104,-6.95624114e-15 L59.2222104,5.00006328 L22.7777896,5.00006328 L22.7777896,-6.95624114e-15 L13.6666311,-6.95624114e-15 L13.6666311,5.00006328 L9.11115856,5.00006328 C4.07735397,5.00006328 0.0456977977,9.02748982 0.0456977977,14.0001266 L0,76.9999367 C0,81.9723625 4.07714042,86 9.11115856,86 L72.8888414,86 C77.922646,86 82,81.9725735 82,76.9999367 L82,13.9999156 C81.9997865,9.02748982 77.922646,5.00006328 72.8888414,5.00006328 Z" id="Shape"></path>
                </g>
                <polyline id="Path-4" stroke-linecap="round" points="29 45 40 56 59 37"></polyline>
            </g>
        </g>
    </g>
</svg>