<?xml version="1.0" encoding="UTF-8"?>
<svg width="114px" height="114px" viewBox="0 0 114 114" version="1.1" xmlns="http://www.w3.org/2000/svg" xmlns:xlink="http://www.w3.org/1999/xlink">
    <!-- Generator: Sketch 52.2 (67145) - http://www.bohemiancoding.com/sketch -->
    <title>Group 5</title>
    <desc>Created with Sketch.</desc>
    <g id="Symbols" stroke="none" stroke-width="1" fill="none" fill-rule="evenodd">
        <g id="Suggested-Actions" transform="translate(-717.000000, -283.000000)">
            <g id="Group-3">
                <g id="Group-4" transform="translate(719.000000, 285.000000)">
                    <g id="Group-5">
                        <g id="Group-7">
                            <g id="Group-6">
                                <circle id="Oval" stroke="#0E9ACA" stroke-width="3" cx="55" cy="55" r="55"></circle>
                                <g id="noun_call_2435739" transform="translate(30.000000, 30.000000)">
                                    <g id="Group"></g>
                                </g>
                            </g>
                            <path d="M77.2979167,65.7027027 C74.8828431,62.8178133 72.1455882,59.5476658 69.0574755,59.2891892 C67.7316176,59.1785012 66.4566176,59.6355037 65.2699755,60.6497543 C64.4969363,61.313145 63.8479167,62.0260442 63.220098,62.7153563 C62.6400735,63.3523342 62.0921569,63.9539312 61.5044118,64.4497543 C61.254902,64.6608108 60.1306373,64.6085995 57.6602941,62.9019656 C55.6411765,61.5072482 53.2115196,59.3449631 50.9941176,56.9692875 C49.0677696,54.9055283 47.4780637,52.8687961 46.5178922,51.2341523 C45.3988971,49.329484 45.425,48.4836609 45.6167892,48.2842752 C45.9946078,47.8914005 46.4751225,47.4570025 46.9839461,46.9969287 C49.2089461,44.9851351 52.2561275,42.2299754 50.4973039,39.1669533 C50.4682598,39.1162162 50.4332108,39.0691646 50.3928922,39.0266585 C47.9875,36.4910319 45.5748775,33.9540541 43.1622549,31.4184275 C43.1417892,31.3969287 43.120098,31.3767813 43.0973039,31.3578624 C38.9859069,27.9679361 35.7371324,31.7654791 33.364951,34.5382064 C33.3645833,34.5386978 33.3640931,34.5391892 33.3637255,34.5396806 C30.1561275,38.3087224 29.7792892,39.0826781 30.3192402,44.070516 C30.873652,49.2151106 33.3294118,54.90086 37.4213235,60.5130221 C41.2185049,65.7211302 46.2145833,70.5266585 51.4894608,74.0444717 C57.295098,77.9163391 62.8789216,79.9293612 67.6482843,79.9293612 C69.1177696,79.9293612 70.5106618,79.7380835 71.8080882,79.3512285 C74.1693627,78.6458231 78.8884804,74.4941032 79.8147059,71.0929975 C80.2540441,69.4798526 79.7262255,68.4716216 79.2050245,67.9085995 C78.6011029,67.2594595 77.9681373,66.503317 77.2979167,65.7027027 Z M78.3960784,70.704914 C77.6404412,73.4799754 73.3539216,77.3513514 71.3883578,77.9385749 C66.379902,79.4320639 59.4237745,77.565602 52.3039216,72.817199 C41.2607843,65.452457 32.8215686,53.5663391 31.78125,43.9120393 C31.2897059,39.3702703 31.5040441,38.9964373 34.4821078,35.4971744 C37.2990196,32.2046683 39.3571078,30.2128993 42.1295343,32.4692875 C44.5096814,34.9708845 46.8898284,37.4737101 49.2629902,39.9751843 C50.2560049,41.8318182 48.4541667,43.6824324 45.9988971,45.902457 C45.4704657,46.3802211 44.9714461,46.8315725 44.5579657,47.2614251 C42.4330882,49.4711302 47.6001225,55.4911548 49.9202206,57.9769042 C52.2066176,60.4262899 54.7235294,62.6641278 56.8257353,64.1163391 C59.5492647,65.9976658 61.389951,66.4751843 62.4518382,65.5776413 C63.1129902,65.0197789 63.6925245,64.3834152 64.3061275,63.7095823 C64.9039216,63.0531941 65.5220588,62.3744472 66.2251225,61.7708845 C67.1137255,61.0115479 68.0001225,60.6798526 68.935049,60.7587224 C71.4127451,60.9660934 73.9409314,63.9861179 76.1713235,66.6507371 C76.8541667,67.4665848 77.4991422,68.2369779 78.1283088,68.9133907 C78.5213235,69.3373464 78.6088235,69.9235872 78.3960784,70.704914 Z" id="Shape" stroke="#293241" fill="#293241" fill-rule="nonzero"></path>
                        </g>
                    </g>
                </g>
            </g>
        </g>
    </g>
</svg>