<?xml version="1.0" encoding="UTF-8"?>
<svg width="47px" height="55px" viewBox="0 0 47 55" version="1.1" xmlns="http://www.w3.org/2000/svg" xmlns:xlink="http://www.w3.org/1999/xlink">
    <!-- Generator: Sketch 52.2 (67145) - http://www.bohemiancoding.com/sketch -->
    <title>Group 15</title>
    <desc>Created with Sketch.</desc>
    <g id="Symbols" stroke="none" stroke-width="1" fill="none" fill-rule="evenodd">
        <g id="Welcome-Card" transform="translate(-68.000000, -67.000000)">
            <g id="Group-8">
                <g id="Group" transform="translate(41.000000, 45.000000)">
                    <g id="Group-15" transform="translate(28.000000, 23.000000)">
                        <path d="M6,30 L36,30 L36,43 C36,45.209139 34.209139,47 32,47 L7.73105707,47 C7.264631,47 6.81900798,46.8069418 6.5,46.4666667 L6.5,46.4666667 C6.17876912,46.1240204 6,45.6719525 6,45.2022763 L6,30 Z" id="Path-2" fill="#FFD148"></path>
                        <path d="M6.11764706,20.0998004 L6.11764706,42.2115768 C6.11764706,44.8010317 8.25087854,46.9001996 10.8823529,46.9001996 L31.1176471,46.9001996 C33.7491215,46.9001996 35.8823529,44.8010317 35.8823529,42.2115768 L35.8823529,20.0998004 L6.11764706,20.0998004 Z M5.82352941,19 L36.1764706,19 C36.6312933,19 37,19.3628191 37,19.8103792 L37,42.2115768 C37,45.4084347 34.3663809,48 31.1176471,48 L10.8823529,48 C7.63361912,48 5,45.4084347 5,42.2115768 L5,19.8103792 C5,19.3628191 5.36870668,19 5.82352941,19 Z" id="Rectangle" stroke="#293241" fill="#293241" fill-rule="nonzero"></path>
                        <path d="M37.1422371,36.892638 L40.1905807,36.892638 C42.2159095,36.892638 43.8577629,35.3009142 43.8577629,33.3374233 L43.8577629,23.6625767 C43.8577629,21.6990858 42.2159095,20.107362 40.1905807,20.107362 L37.1422371,20.107362 L37.1422371,36.892638 Z M36,19 L40.1905807,19 C42.8467496,19 45,21.0875067 45,23.6625767 L45,33.3374233 C45,35.9124933 42.8467496,38 40.1905807,38 L36,38 L36,19 Z" id="Rectangle" stroke="#293241" fill="#293241" fill-rule="nonzero"></path>
                        <path d="M0.578357449,52.9955947 C0.960940154,52.9955947 1.34352286,52.9955947 1.72012771,52.9955947 C2.76027444,52.9955947 3.79444331,52.9955947 4.83459004,52.9955947 C6.37089872,52.9955947 7.90720739,52.9955947 9.44351607,52.9955947 C11.3205625,52.9955947 13.191631,52.9955947 15.0686774,52.9955947 C17.1190816,52.9955947 19.1754636,52.9955947 21.2258678,52.9955947 C23.3001834,52.9955947 25.3685212,52.9955947 27.4428368,52.9955947 C29.3736839,52.9955947 31.3105088,52.9955947 33.2413559,52.9955947 C34.8733102,52.9955947 36.5112424,52.9955947 38.1431968,52.9955947 C39.3208342,52.9955947 40.5044494,52.9955947 41.6820868,52.9955947 C42.2380273,52.9955947 42.7939678,53.0055066 43.3499083,52.9955947 C43.3738197,52.9955947 43.3977311,52.9955947 43.4216426,52.9955947 C44.1927858,52.9955947 44.1927858,52.0044053 43.4216426,52.0044053 C43.0390598,52.0044053 42.6564771,52.0044053 42.2798723,52.0044053 C41.2397256,52.0044053 40.2055567,52.0044053 39.16541,52.0044053 C37.6291013,52.0044053 36.0927926,52.0044053 34.5564839,52.0044053 C32.6794375,52.0044053 30.808369,52.0044053 28.9313226,52.0044053 C26.8809184,52.0044053 24.8245364,52.0044053 22.7741322,52.0044053 C20.6998166,52.0044053 18.6314788,52.0044053 16.5571632,52.0044053 C14.6263161,52.0044053 12.6894912,52.0044053 10.7586441,52.0044053 C9.12668976,52.0044053 7.48875756,52.0044053 5.85680321,52.0044053 C4.67916582,52.0044053 3.49555057,52.0044053 2.31791319,52.0044053 C1.76197269,52.0044053 1.2060322,51.9944934 0.650091706,52.0044053 C0.626180287,52.0044053 0.602268868,52.0044053 0.578357449,52.0044053 C-0.192785816,52.0044053 -0.192785816,52.9955947 0.578357449,52.9955947 Z" id="Path" stroke="#293241" fill="#293241"></path>
                        <path d="M16.3627528,6.26891995 L18.0892184,0.36216773 C18.1700356,0.0856679513 18.4341442,-0.0645338863 18.6791215,0.0266825354 C18.9240987,0.117898957 19.0571767,0.415991835 18.9763594,0.692491613 L17.3813346,6.14954578 L18.9072007,9.11886916 L16.8854098,13.7074456 C16.7705423,13.9681445 16.4901793,14.074382 16.2592016,13.9447338 C16.0282238,13.8150856 15.9340979,13.4986468 16.0489655,13.2379479 L17.8469874,9.15722874 L16.3627528,6.26891995 Z" id="Path-32" stroke="#293241" fill="#293241" fill-rule="nonzero"></path>
                        <path d="M24.3627528,6.26891995 L26.0892184,0.36216773 C26.1700356,0.0856679513 26.4341442,-0.0645338863 26.6791215,0.0266825354 C26.9240987,0.117898957 27.0571767,0.415991835 26.9763594,0.692491613 L25.3813346,6.14954578 L26.9072007,9.11886916 L24.8854098,13.7074456 C24.7705423,13.9681445 24.4901793,14.074382 24.2592016,13.9447338 C24.0282238,13.8150856 23.9340979,13.4986468 24.0489655,13.2379479 L25.8469874,9.15722874 L24.3627528,6.26891995 Z" id="Path-32-Copy" stroke="#293241" fill="#293241" fill-rule="nonzero"></path>
                    </g>
                </g>
            </g>
        </g>
    </g>
</svg>