<?xml version="1.0" encoding="UTF-8"?>
<svg width="113px" height="107px" viewBox="0 0 113 107" version="1.1" xmlns="http://www.w3.org/2000/svg" xmlns:xlink="http://www.w3.org/1999/xlink">
    <!-- Generator: Sketch 52.2 (67145) - http://www.bohemiancoding.com/sketch -->
    <title>Group 7</title>
    <desc>Created with Sketch.</desc>
    <g id="Symbols" stroke="none" stroke-width="1" fill="none" fill-rule="evenodd">
        <g id="KPI" transform="translate(-928.000000, -68.000000)" fill-rule="nonzero">
            <g id="Group-7" transform="translate(928.000000, 68.000000)">
                <path d="M57,106.5 C31.3187591,106.5 10.5,85.6812409 10.5,60 C10.5,34.3187591 31.3187591,13.5 57,13.5 C82.6812409,13.5 103.5,34.3187591 103.5,60 C103.5,85.6812409 82.6812409,106.5 57,106.5 Z M57,103.5 C81.0243866,103.5 100.5,84.0243866 100.5,60 C100.5,35.9756134 81.0243866,16.5 57,16.5 C32.9756134,16.5 13.5,35.9756134 13.5,60 C13.5,84.0243866 32.9756134,103.5 57,103.5 Z" id="Oval" fill="#293241"></path>
                <g id="Group-2" transform="translate(43.000000, 0.000000)">
                    <path d="M15,29.5 C6.99187113,29.5 0.5,23.0081289 0.5,15 C0.5,6.99187113 6.99187113,0.5 15,0.5 C23.0081289,0.5 29.5,6.99187113 29.5,15 C29.5,23.0081289 23.0081289,29.5 15,29.5 Z" id="Oval" fill="#293241"></path>
                    <path d="M15,26.5 C21.3512746,26.5 26.5,21.3512746 26.5,15 C26.5,8.64872538 21.3512746,3.5 15,3.5 C8.64872538,3.5 3.5,8.64872538 3.5,15 C3.5,21.3512746 8.64872538,26.5 15,26.5 Z" id="Path" fill="#FFFFFF"></path>
                </g>
                <g id="Group-2-Copy" transform="translate(0.000000, 57.000000)">
                    <path d="M15,29.5 C6.99187113,29.5 0.5,23.0081289 0.5,15 C0.5,6.99187113 6.99187113,0.5 15,0.5 C23.0081289,0.5 29.5,6.99187113 29.5,15 C29.5,23.0081289 23.0081289,29.5 15,29.5 Z" id="Oval" fill="#293241"></path>
                    <path d="M15,26.5 C21.3512746,26.5 26.5,21.3512746 26.5,15 C26.5,8.64872538 21.3512746,3.5 15,3.5 C8.64872538,3.5 3.5,8.64872538 3.5,15 C3.5,21.3512746 8.64872538,26.5 15,26.5 Z" id="Path" fill="#FFFFFF"></path>
                </g>
                <g id="Group-2-Copy-2" transform="translate(83.000000, 57.000000)">
                    <path d="M15,29.5 C6.99187113,29.5 0.5,23.0081289 0.5,15 C0.5,6.99187113 6.99187113,0.5 15,0.5 C23.0081289,0.5 29.5,6.99187113 29.5,15 C29.5,23.0081289 23.0081289,29.5 15,29.5 Z" id="Oval" fill="#293241"></path>
                    <path d="M15,26.5 C21.3512746,26.5 26.5,21.3512746 26.5,15 C26.5,8.64872538 21.3512746,3.5 15,3.5 C8.64872538,3.5 3.5,8.64872538 3.5,15 C3.5,21.3512746 8.64872538,26.5 15,26.5 Z" id="Path" fill="#FFFFFF"></path>
                </g>
            </g>
        </g>
    </g>
</svg>