<?xml version="1.0" encoding="UTF-8"?>
<svg width="27px" height="38px" viewBox="0 0 27 38" version="1.1" xmlns="http://www.w3.org/2000/svg" xmlns:xlink="http://www.w3.org/1999/xlink">
    <!-- Generator: sketchtool 52.2 (67145) - http://www.bohemiancoding.com/sketch -->
    <title>548EE381-DB15-4CBD-ADD8-A2BA942C5D1F</title>
    <desc>Created with sketchtool.</desc>
    <g id="Symbols" stroke="none" stroke-width="1" fill="none" fill-rule="evenodd">
        <g id="Up-next" transform="translate(-38.000000, -219.000000)" fill="#77767E" fill-rule="nonzero" stroke="#77767E" stroke-width="0.5">
            <g id="Shape" transform="translate(39.000000, 220.000000)">
                <path d="M12.5019382,37 L11.8268038,36.0916297 C11.797731,36.0516642 8.85750465,32.0815239 5.95862621,27.3357805 C2.00537523,20.8647431 0,16.0770019 0,13.1060012 C0,11.3373549 0.330137482,9.62086705 0.982659706,8.00395445 C1.61256977,6.44326462 2.51317966,5.04108235 3.66123114,3.83872799 C4.80863655,2.63501886 6.14598408,1.69006994 7.63386397,1.03029915 C9.17536696,0.346819963 10.8124871,0 12.5006461,0 C14.1868669,0 15.824633,0.346819963 17.36549,1.03029915 C18.854662,1.69074732 20.1913634,2.63569624 21.3387689,3.83872799 C22.4868203,5.04175973 23.3874302,6.44326462 24.0173403,8.00395445 C24.6698625,9.62086705 25,11.3373549 25,13.1060012 C25,16.0770019 22.9946248,20.8647431 19.0413738,27.3357805 C16.1424953,32.0815239 13.202269,36.0516642 13.1725501,36.0916297 L12.5019382,37 Z M12.5019382,1.79099996 C6.54977259,1.79099996 1.70883295,6.86730621 1.70883295,13.1066786 C1.70883295,15.6922485 3.67544449,20.2794845 7.39675935,26.3705101 C9.42862311,29.6937498 11.4753463,32.6281718 12.5012921,34.0615137 C13.527884,32.6261397 15.5804217,29.6856212 17.6122855,26.3596719 C21.3290779,20.2740654 23.2931052,15.6915712 23.2931052,13.107356 C23.2931052,6.86730621 18.4521656,1.79099996 12.5019382,1.79099996 Z M12.5,17.4852807 C9.98811247,17.4852807 7.94591172,15.3433964 7.94591172,12.7104097 C7.94591172,10.077423 9.98811247,7.93418403 12.5,7.93418403 C15.0118875,7.93418403 17.0553804,10.077423 17.0553804,12.7104097 C17.0553804,15.3433964 15.0118875,17.4852807 12.5,17.4852807 Z M12.5,9.72586137 C10.9307164,9.72586137 9.65409861,11.0643697 9.65409861,12.7104097 C9.65409861,14.3557724 10.9313624,15.6949581 12.5,15.6949581 C14.0699297,15.6949581 15.3465474,14.3557724 15.3465474,12.7104097 C15.3465474,11.0643697 14.0699297,9.72586137 12.5,9.72586137 Z"></path>
            </g>
        </g>
    </g>
</svg>