<?xml version="1.0" encoding="UTF-8"?>
<svg width="68px" height="68px" viewBox="0 0 68 68" version="1.1" xmlns="http://www.w3.org/2000/svg" xmlns:xlink="http://www.w3.org/1999/xlink">
    <!-- Generator: Sketch 52.2 (67145) - http://www.bohemiancoding.com/sketch -->
    <title>noun_menu_1422001</title>
    <desc>Created with Sketch.</desc>
    <g id="Symbols" stroke="none" stroke-width="1" fill="none" fill-rule="evenodd">
        <g id="Dashboard-header" transform="translate(-40.000000, -57.000000)" fill="#FFFFFF" fill-rule="nonzero">
            <g id="noun_menu_1422001" transform="translate(40.000000, 57.000000)">
                <g id="Group">
                    <path d="M2.7,30.5 L28.5,30.5 C29.6045695,30.5 30.5,29.6045695 30.5,28.5 L30.5,2.7 C30.5,1.5954305 29.6045695,0.7 28.5,0.7 L2.7,0.7 C1.5954305,0.7 0.7,1.5954305 0.7,2.7 L0.7,28.5 C0.7,29.6045695 1.5954305,30.5 2.7,30.5 Z M4.7,4.7 L26.5,4.7 L26.5,26.5 L4.7,26.5 L4.7,4.7 Z" id="Shape"></path>
                    <path d="M39.5,30.5 L65.3,30.5 C66.4045695,30.5 67.3,29.6045695 67.3,28.5 L67.3,2.7 C67.3,1.5954305 66.4045695,0.7 65.3,0.7 L39.5,0.7 C38.3954305,0.7 37.5,1.5954305 37.5,2.7 L37.5,28.5 C37.5,29.6045695 38.3954305,30.5 39.5,30.5 Z M41.5,4.7 L63.3,4.7 L63.3,26.5 L41.5,26.5 L41.5,4.7 Z" id="Shape"></path>
                    <path d="M0.7,65.3 C0.7,66.4045695 1.5954305,67.3 2.7,67.3 L28.5,67.3 C29.6045695,67.3 30.5,66.4045695 30.5,65.3 L30.5,39.5 C30.5,38.3954305 29.6045695,37.5 28.5,37.5 L2.7,37.5 C1.5954305,37.5 0.7,38.3954305 0.7,39.5 L0.7,65.3 Z M4.7,41.5 L26.5,41.5 L26.5,63.3 L4.7,63.3 L4.7,41.5 Z" id="Shape"></path>
                    <path d="M37.5,65.3 C37.5,66.4045695 38.3954305,67.3 39.5,67.3 L65.3,67.3 C66.4045695,67.3 67.3,66.4045695 67.3,65.3 L67.3,39.5 C67.3,38.3954305 66.4045695,37.5 65.3,37.5 L39.5,37.5 C38.3954305,37.5 37.5,38.3954305 37.5,39.5 L37.5,65.3 Z M41.5,41.5 L63.3,41.5 L63.3,63.3 L41.5,63.3 L41.5,41.5 Z" id="Shape"></path>
                </g>
            </g>
        </g>
    </g>
</svg>