<?xml version="1.0" encoding="UTF-8"?>
<svg width="114px" height="114px" viewBox="0 0 114 114" version="1.1" xmlns="http://www.w3.org/2000/svg" xmlns:xlink="http://www.w3.org/1999/xlink">
    <!-- Generator: Sketch 52.2 (67145) - http://www.bohemiancoding.com/sketch -->
    <title>Group 2</title>
    <desc>Created with Sketch.</desc>
    <g id="Symbols" stroke="none" stroke-width="1" fill="none" fill-rule="evenodd">
        <g id="Suggested-Actions" transform="translate(-873.000000, -283.000000)">
            <g id="Group-3">
                <g id="Group-2" transform="translate(875.000000, 285.000000)">
                    <g id="Group-8">
                        <circle id="Oval-Copy-4" stroke="#0E9ACA" stroke-width="3" cx="55" cy="55" r="55"></circle>
                        <g id="noun_message_1024378" transform="translate(28.000000, 36.000000)" fill="#293241">
                            <g id="Group">
                                <path d="M49.84,0 L6.16,0 C2.73777778,0 0,2.76571429 0,6.22285714 L0,28.8514286 C0,32.2457143 2.73777778,35.0742857 6.16,35.0742857 L19.1644444,35.0742857 L28,44 L36.8355556,35.0742857 L49.84,35.0742857 C53.2,35.0742857 56,32.3085714 56,28.8514286 L56,6.22285714 C56,2.76571429 53.2622222,0 49.84,0 Z M53.5733333,28.8514286 C53.5733333,30.9257143 51.8933333,32.56 49.9022222,32.56 L35.84,32.56 L28,40.48 L20.16,32.56 L6.16,32.56 C4.10666667,32.56 2.48888889,30.8628571 2.48888889,28.8514286 L2.48888889,6.22285714 C2.48888889,4.14857143 4.16888889,2.51428571 6.16,2.51428571 L49.84,2.51428571 C51.8933333,2.51428571 53.5111111,4.21142857 53.5111111,6.22285714 L53.5111111,28.8514286 L53.5733333,28.8514286 Z" id="Shape" fill-rule="nonzero"></path>
                                <ellipse id="Oval" cx="28" cy="18.1028571" rx="2.24" ry="2.26285714"></ellipse>
                                <ellipse id="Oval" cx="15.9288889" cy="18.1028571" rx="2.24" ry="2.26285714"></ellipse>
                                <ellipse id="Oval" cx="40.0711111" cy="18.1028571" rx="2.24" ry="2.26285714"></ellipse>
                            </g>
                        </g>
                    </g>
                </g>
            </g>
        </g>
    </g>
</svg>