<?xml version="1.0" encoding="UTF-8"?>
<svg width="65px" height="70px" viewBox="0 0 65 70" version="1.1" xmlns="http://www.w3.org/2000/svg" xmlns:xlink="http://www.w3.org/1999/xlink">
    <!-- Generator: Sketch 52.2 (67145) - http://www.bohemiancoding.com/sketch -->
    <title>Group 5</title>
    <desc>Created with Sketch.</desc>
    <g id="Symbols" stroke="none" stroke-width="1" fill="none" fill-rule="evenodd">
        <g id="Dashboard-header" transform="translate(-1008.000000, -55.000000)">
            <g id="Group-5" transform="translate(1008.000000, 56.000000)">
                <g id="noun_notification_2184934" fill="#FFFFFF" fill-rule="nonzero">
                    <g id="Group">
                        <g id="Shape">
                            <path d="M21.25,57.2946429 L26.25,57.2946429 C26.25,60.6971113 29.0482204,63.4553571 32.5,63.4553571 C35.9517796,63.4553571 38.75,60.6971113 38.75,57.2946429 L43.75,57.2946429 C43.75,63.4190862 38.7132034,68.3839286 32.5,68.3839286 C26.2867966,68.3839286 21.25,63.4190862 21.25,57.2946429 Z M65,48.6675907 L65,49.9041251 C65,52.6335757 62.7616209,54.8303571 59.9982634,54.8303571 L5.00173662,54.8303571 C2.2391465,54.8303571 0,52.6259768 0,49.9041251 L0,48.6675907 C0,44.3269161 3.26005662,40.7354658 7.5,40.1334139 L7.5,25.2580037 C7.5,11.6451014 18.6911617,0.616071429 32.5,0.616071429 C46.308931,0.616071429 57.5,11.6477334 57.5,25.2580037 L57.5,40.1330739 C61.7457444,40.7338022 65,44.3225879 65,48.6675907 Z M60,48.6675907 C60,46.6241698 58.3234429,44.9732143 56.2384725,44.9732143 C54.172937,44.9732143 52.5,43.3117783 52.5,41.2856739 L52.5,25.2580037 C52.5,14.3696617 43.54746,5.54464286 32.5,5.54464286 C21.4523564,5.54464286 12.5,14.3673021 12.5,25.2580037 L12.5,41.2856739 C12.5,43.320832 10.8184436,44.9732143 8.7615275,44.9732143 C6.68351588,44.9732143 5,46.6293598 5,48.6675907 L5,49.9021895 C5,49.9021895 59.9982634,49.9017857 59.9982634,49.9017857 C59.9989607,49.9017857 60,48.6675907 60,48.6675907 Z"></path>
                        </g>
                    </g>
                </g>
                <circle id="Oval" stroke="#FFFFFF" stroke-width="3" fill="#E91F63" cx="52" cy="9" r="8"></circle>
            </g>
        </g>
    </g>
</svg>