<?xml version="1.0" encoding="UTF-8"?>
<svg width="102px" height="88px" viewBox="0 0 102 88" version="1.1" xmlns="http://www.w3.org/2000/svg" xmlns:xlink="http://www.w3.org/1999/xlink">
    <!-- Generator: Sketch 52.2 (67145) - http://www.bohemiancoding.com/sketch -->
    <title>noun_tick_1348367</title>
    <desc>Created with Sketch.</desc>
    <g id="Symbols" stroke="none" stroke-width="1" fill="none" fill-rule="evenodd">
        <g id="KPI" transform="translate(-136.000000, -77.000000)" fill="#293241">
            <g id="noun_tick_1348367" transform="translate(136.000000, 76.500000)">
                <g id="Group" transform="translate(0.000000, 0.500000)">
                    <path d="M24.3975075,37.6118647 C23.7243623,36.8263751 22.5377033,36.7362612 21.7501103,37.4076075 C20.962516,38.0789538 20.8721606,39.2624417 21.5453057,40.04793 L39.0937682,60.4676754 L40.5198685,59.2496396 L39.0907592,60.4706789 C39.766916,61.2576715 40.9550897,61.3492859 41.7441872,60.6749361 L41.8857428,60.5412676 L100.883053,5.77923461 C101.642035,5.07484723 101.6842,3.88835072 100.977926,3.13139697 C100.271651,2.37444322 99.0819751,2.33239038 98.3229931,3.03677775 L40.6719556,56.5492165 L24.3974731,37.6118939 L24.3975075,37.6118647 Z" id="Path"></path>
                    <path d="M44.5481175,0.00145655172 C56.304816,0.00145655172 66.9863325,4.60024812 74.8773075,12.0916971 L72.2133352,14.7485503 C65.0030062,7.93596658 55.2642502,3.75619027 44.5481302,3.75619027 C33.4374742,3.75619027 23.3765002,8.24834606 16.0968877,15.5100055 C8.8157835,22.7701517 4.31157825,32.804303 4.31157825,43.8852168 C4.31157825,54.9661814 8.81577075,65.0002691 16.0968877,72.2604281 C23.3764875,79.5220748 33.4375252,84.0142433 44.5481302,84.0142433 C55.6587862,84.0142433 65.7197602,79.5220875 72.9993727,72.2604281 C80.280477,65.0002819 84.7846822,54.9661305 84.7846822,43.8852168 C84.7846822,40.6366279 84.3961553,37.4796445 83.6657856,34.4548304 L86.7393644,31.3894653 C87.9169913,35.3499555 88.5494819,39.5432488 88.5494819,43.8852168 C88.5494819,56.0039919 83.6236213,66.9768329 75.6617818,74.9157681 C67.7014978,82.8562801 56.6992168,87.7690279 44.5480843,87.7690279 C32.3968371,87.7690279 21.3945943,82.8563309 13.4343868,74.9157681 C5.47259835,66.9767567 0.54668685,56.0038774 0.54668685,43.8852168 C0.54668685,31.7664417 5.47254735,20.7936006 13.4343868,12.8546655 C21.3946708,4.91415351 32.3969518,0.00140568801 44.5480843,0.00140568801 L44.5481175,0.00145655172 Z" id="Path"></path>
                </g>
            </g>
        </g>
    </g>
</svg>