<?xml version="1.0" encoding="UTF-8"?>
<svg width="84px" height="106px" viewBox="0 0 84 106" version="1.1" xmlns="http://www.w3.org/2000/svg" xmlns:xlink="http://www.w3.org/1999/xlink">
    <!-- Generator: Sketch 52.2 (67145) - http://www.bohemiancoding.com/sketch -->
    <title>noun_notification_867351</title>
    <desc>Created with Sketch.</desc>
    <g id="Symbols" stroke="none" stroke-width="1" fill="none" fill-rule="evenodd">
        <g id="KPI" transform="translate(-548.000000, -75.000000)" fill="#293241" fill-rule="nonzero" stroke="#293241" stroke-width="0.5">
            <g id="noun_notification_867351" transform="translate(549.000000, 76.000000)">
                <path d="M77.7586207,75.8918919 L76.3448276,75.8918919 L76.3448276,47.7837838 C76.3448276,30.7783784 64.0448276,16.5837838 47.9275862,13.3513514 C48.9158276,11.9459459 49.4827586,10.2594595 49.4827586,8.43243243 C49.4827586,3.79459459 45.6655172,0 41,0 C36.3344828,0 32.5172414,3.79459459 32.5172414,8.43243243 C32.5172414,10.2594595 33.0827586,11.9459459 34.0724138,13.3513514 C17.9551724,16.5837838 5.65517241,30.7783784 5.65517241,47.7837838 L5.65517241,75.8918919 L4.24137931,75.8918919 C1.83793103,75.8918919 0,77.7189189 0,80.1081081 L0,88.5405405 C0,90.9297297 1.83793103,92.7567568 4.24137931,92.7567568 L27.1448276,92.7567568 C28.4172414,99.2216216 34.2137931,104 41,104 C47.7862069,104 53.5827586,99.2216216 54.8551724,92.7567568 L77.7586207,92.7567568 C80.162069,92.7567568 82,90.9297297 82,88.5405405 L82,80.1081081 C82,77.7189189 80.162069,75.8918919 77.7586207,75.8918919 Z M35.3448276,8.43243243 C35.3448276,5.34054054 37.8896552,2.81081081 41,2.81081081 C44.1103448,2.81081081 46.6551724,5.34054054 46.6551724,8.43243243 C46.6551724,10.1189189 45.8068966,11.8054054 44.5344828,12.7891892 C42.9736552,12.5952432 39.0376552,12.5938378 37.4655172,12.7891892 C36.1931034,11.8054054 35.3448276,10.1189189 35.3448276,8.43243243 Z M41,101.189189 C35.7689655,101.189189 31.3862069,97.5351351 30.1137931,92.7567568 L52.0275862,92.7567568 C50.6137931,97.5351351 46.2310345,101.189189 41,101.189189 Z M79.1724138,88.5405405 C79.1724138,89.3837838 78.6068966,89.9459459 77.7586207,89.9459459 L4.24137931,89.9459459 C3.39310345,89.9459459 2.82758621,89.3837838 2.82758621,88.5405405 L2.82758621,80.1081081 C2.82758621,79.2648649 3.39310345,78.7027027 4.24137931,78.7027027 L7.06896552,78.7027027 C7.91724138,78.7027027 8.48275862,78.1405405 8.48275862,77.2972973 L8.48275862,47.7837838 C8.48275862,29.9351351 23.0448276,15.4594595 41,15.4594595 C58.9551724,15.4594595 73.5172414,29.9351351 73.5172414,47.7837838 L73.5172414,77.2972973 C73.5172414,78.1405405 74.0827586,78.7027027 74.9310345,78.7027027 L77.7586207,78.7027027 C78.6068966,78.7027027 79.1724138,79.2648649 79.1724138,80.1081081 L79.1724138,88.5405405 Z" id="Shape"></path>
            </g>
        </g>
    </g>
</svg>