<?xml version="1.0" encoding="UTF-8"?>
<svg width="96px" height="96px" viewBox="0 0 96 96" version="1.1" xmlns="http://www.w3.org/2000/svg" xmlns:xlink="http://www.w3.org/1999/xlink">
    <!-- Generator: Sketch 52.2 (67145) - http://www.bohemiancoding.com/sketch -->
    <title>man</title>
    <desc>Created with Sketch.</desc>
    <g id="Symbols" stroke="none" stroke-width="1" fill="none" fill-rule="evenodd">
        <g id="Dashboard-header" transform="translate(-1112.000000, -39.000000)">
            <g id="man" transform="translate(1112.000000, 40.000000)">
                <g id="Group" transform="translate(1.985915, 1.985915)" fill="#323232" stroke="#F1F1F1">
                    <path d="M45.983529,-0.0841707746 C71.0734189,-0.0841707746 91.4126795,20.2550899 91.4126795,45.344889 C91.4126795,70.4346122 71.0734042,90.7738582 45.983529,90.7738582 C20.8938059,90.7738582 0.554559887,70.4345828 0.554559887,45.344889 C0.554559887,20.2551192 20.8937912,-0.0841707746 45.983529,-0.0841707746 Z" id="image-box" stroke-width="4"></path>
                </g>
                <g id="Group-3" transform="translate(16.549296, 9.267606)">
                    <g id="Group" transform="translate(0.000000, 52.957746)" fill="#E6E9EE">
                        <path d="M32.4366197,4.60336733 C32.3538732,4.60336733 32.2711268,4.6642383 32.1056338,4.6642383 C32.0228873,4.6642383 31.9401408,4.60336733 31.7746479,4.60336733 L32.4366197,4.60336733 Z" id="Path"></path>
                        <path d="M63.5492958,10.5793189 C56.412412,20.1802036 44.8072183,26.4788732 31.7746479,26.4788732 C18.7420775,26.4788732 7.19894366,20.2413558 0,10.5793189 C5.58538732,4.70871418 13.1566901,1.58995544 19.4867958,0 C18.928257,4.46410565 21.2865317,10.4570146 21.3485915,10.2735582 C23.7068662,4.89217058 31.712588,4.40295352 31.712588,4.40295352 C31.712588,4.40295352 39.7183099,4.83101844 42.1386444,10.2735582 C42.2007042,10.3958625 44.5589789,4.46410565 44.0004401,0 C50.3926056,1.58995544 57.9639085,4.70871418 63.5492958,10.5793189 Z" id="Path"></path>
                    </g>
                    <path d="M42.3661972,47.5382388 C42.3661972,48.4229301 41.8299162,53.1185994 32.0427884,56.9295775 L31.5065074,56.9295775 C21.7193796,53.1185994 21.1830986,48.4229301 21.1830986,47.5382388 C21.2501337,45.7688561 21.6523444,43.9994735 22.3897308,42.3661972 C25.0711357,45.4285902 28.2888215,47.4701856 31.7746479,47.4701856 C35.1934391,47.4701856 38.4781601,45.4966434 41.159565,42.3661972 C41.8969513,43.9994735 42.3661972,45.7688561 42.3661972,47.5382388 Z" id="Path" fill="#C3C3C3"></path>
                    <path d="M37.0704225,57.7916803 L35.0008095,62.2253521 L27.8865145,62.2253521 L25.8169014,57.7916803 C28.6626194,56.475434 31.443662,56.2676056 31.443662,56.2676056 C31.443662,56.2676056 34.28938,56.475434 37.0704225,57.7916803 Z" id="Path" fill="#040404"></path>
                    <path d="M25.8169014,79.0597306 C27.7366197,79.31099 29.7225352,79.4366197 31.7746479,79.4366197 C33.7605634,79.4366197 35.7464789,79.31099 37.7323944,79.0597306 L35.415493,62.2253521 L28.1338028,62.2253521 L25.8169014,79.0597306 Z" id="Path" fill="#040404"></path>
                    <g id="Group" transform="translate(18.535211, 47.661972)" fill="#FFFFFF">
                        <path d="M24.2232042,0.0330985915 C24.2232042,0.0330985915 24.698169,5.32887324 13.5025704,9.36690141 C13.5025704,9.36690141 22.255493,9.83028169 24.9017254,15.721831 C24.9695775,15.9866197 30.0584859,3.1443662 24.2232042,0.0330985915 Z" id="Path"></path>
                        <path d="M2.78193662,0.0330985915 C-2.98549296,3.1443662 2.03556338,15.9204225 2.17126761,15.721831 C4.74964789,9.89647887 13.5704225,9.36690141 13.5704225,9.36690141 C2.30697183,5.32887324 2.78193662,0.0330985915 2.78193662,0.0330985915 Z" id="Path"></path>
                    </g>
                    <path d="M49.6938158,33.270262 C48.2906398,35.5917153 46.1524669,36.9845873 44.5488372,36.7192783 C41.3415778,42.6224024 36.6643245,47 31.452528,47 C26.2407315,47 21.5634782,42.5560752 18.3562188,36.7192783 C16.7525891,36.9182601 14.6144162,35.5917153 13.2112402,33.270262 C11.5407926,30.5508453 11.4739747,27.5661197 13.0776044,26.5712112 C13.4785118,26.3722294 13.8794192,26.239575 14.3471445,26.3059022 C15.416231,29.0253189 16.8862249,30.6834998 16.8862249,30.6834998 C15.3494131,22.2599408 21.6302961,21.3313595 20.5612096,13.2394366 C20.5612096,13.2394366 24.503466,21.9283046 35.7956917,15.8261988 L34.927059,17.4843798 C50.6960843,13.9690362 45.4174699,32.408008 45.2838341,32.8722986 C47.0879175,30.6171726 48.2238219,28.3620465 48.8920009,26.3059022 C49.1592725,26.3059022 49.4933621,26.4385567 49.6938158,26.5712112 C51.4310813,27.4997925 51.3642634,30.5508453 49.6938158,33.270262 Z" id="Path" fill="#C3C3C3"></path>
                    <path d="M40.487635,4.11993572 C41.7584789,3.98452144 43.8319611,5.13554281 43.8319611,5.13554281 C38.1466067,-1.43204975 28.8493801,2.76579292 28.8493801,2.76579292 C31.9930466,0.0575073284 34.8022806,0.328335888 34.8022806,0.328335888 C21.4918626,-1.70287831 19.2177208,6.35427133 19.2177208,6.35427133 C18.6157421,5.40637137 18.6157421,4.05222858 18.6826286,3.37515718 C17.7462173,5.00012853 18.7495152,8.25007124 18.7495152,8.25007124 C17.8131038,5.88032135 14.5356642,6.28656419 14.5356642,6.28656419 C17.3448982,6.76051417 17.8131038,8.5208998 17.8131038,8.5208998 C10.790019,11.1614783 11.9939764,18.5415565 11.9939764,18.5415565 L13.6661394,16.5103423 C11.5926572,24.5674919 16.8766925,30.7965488 16.8766925,30.7965488 C15.3383025,22.197742 21.6256356,21.2498421 20.5554513,12.989571 C20.5554513,12.989571 24.5017561,21.8592063 35.8055784,15.6301495 L34.9360536,17.322828 C50.9219325,13.6666424 45.3034646,33.0985915 45.3034646,33.0985915 C50.988819,25.7862205 50.1192942,18.2707279 50.1192942,18.2707279 L50.7881595,20.9790135 C52.5940956,8.79172836 40.487635,4.11993572 40.487635,4.11993572 Z" id="Path" fill="#040404"></path>
                </g>
            </g>
        </g>
    </g>
</svg>