<?xml version="1.0" encoding="UTF-8"?>
<svg width="1094px" height="22px" viewBox="0 0 1094 22" version="1.1" xmlns="http://www.w3.org/2000/svg" xmlns:xlink="http://www.w3.org/1999/xlink">
    <!-- Generator: Sketch 52.2 (67145) - http://www.bohemiancoding.com/sketch -->
    <title>Group</title>
    <desc>Created with Sketch.</desc>
    <g id="Symbols" stroke="none" stroke-width="1" fill="none" fill-rule="evenodd">
        <g id="Closures" transform="translate(-38.000000, -184.000000)">
            <g id="Group" transform="translate(38.000000, 184.000000)">
                <path d="M11,0 L269,0 L269,22 L11,22 C4.92486775,22 7.43989126e-16,17.0751322 0,11 L0,11 C-7.43989126e-16,4.92486775 4.92486775,1.11598369e-15 11,0 Z" id="Rectangle" fill="#CFD8DC"></path>
                <polygon id="Rectangle-Copy" fill="#CFD8DC" points="279 1.72306613e-13 557 0 557 22 279 22"></polygon>
                <polygon id="Rectangle-Copy-3" fill="#CFD8DC" points="570 1.72306613e-13 793 0 793 22 570 22"></polygon>
                <path d="M804,0 L1083,0 C1089.07513,-1.11598369e-15 1094,4.92486775 1094,11 L1094,11 C1094,17.0751322 1089.07513,22 1083,22 L804,22 L804,0 Z" id="Rectangle-Copy-2" fill="#31C9A7"></path>
            </g>
        </g>
    </g>
</svg>