<?xml version="1.0" encoding="UTF-8"?>
<svg width="114px" height="114px" viewBox="0 0 114 114" version="1.1" xmlns="http://www.w3.org/2000/svg" xmlns:xlink="http://www.w3.org/1999/xlink">
    <!-- Generator: Sketch 52.2 (67145) - http://www.bohemiancoding.com/sketch -->
    <title>Group 10</title>
    <desc>Created with Sketch.</desc>
    <g id="Symbols" stroke="none" stroke-width="1" fill="none" fill-rule="evenodd">
        <g id="Suggested-Actions" transform="translate(-873.000000, -613.000000)">
            <g id="Group-3">
                <g id="Group-10" transform="translate(875.000000, 615.000000)">
                    <g id="Group-9">
                        <circle id="Oval-Copy-17" stroke="#0E9ACA" stroke-width="3" cx="55" cy="55" r="55"></circle>
                        <g id="Group" transform="translate(28.000000, 29.000000)" fill="#293241">
                            <path d="M14.0545407,23.1507813 C13.6358494,22.654752 12.8977563,22.5978459 12.4078793,23.0217947 C11.9180015,23.4457436 11.8618011,24.1931051 12.2804924,24.6891335 L23.1955055,37.5840104 L24.0825293,36.8148322 L23.1936339,37.5859071 C23.6141984,38.0828855 24.3532336,38.1407391 24.8440464,37.7148936 L24.9320929,37.6304832 L61.6279808,3.04877526 C62.1000619,2.60396127 62.1262886,1.8546999 61.6869909,1.37669074 C61.2476933,0.898681578 60.5077238,0.872125603 60.0356427,1.31693959 L24.1771263,35.1095405 L14.0545193,23.1507997 L14.0545407,23.1507813 Z" id="Path"></path>
                            <path d="M27.0000203,3.18739876e-05 C34.2141289,3.18739876e-05 40.7684877,2.88188659 45.6105231,7.57643889 L43.9758648,9.24136867 C39.5514852,4.97223051 33.5756202,2.3529537 27.0000282,2.3529537 C20.1823422,2.3529537 14.0087587,5.16798461 9.54186567,9.7185382 C5.07405724,14.2681435 2.31020089,20.5560924 2.31020089,27.5 C2.31020089,34.4439395 5.07404942,40.7318485 9.54186567,45.2814618 C14.0087509,49.8320074 20.1823735,52.6470463 27.0000282,52.6470463 C33.8177142,52.6470463 39.9912976,49.8320154 44.4581907,45.2814618 C48.9259991,40.7318565 51.6898554,34.4439076 51.6898554,27.5 C51.6898554,25.4642562 51.4514488,23.4859175 51.0032816,21.5904033 L52.8892814,19.6694776 C53.6118931,22.1513377 54,24.779085 54,27.5 C54,35.0942883 50.9774089,41.9704716 46.0918898,46.9454433 C41.2073252,51.9214031 34.4561399,55 27,55 C19.5437896,55 12.7926278,51.921435 7.90811019,46.9454433 C3.02262242,41.9704238 0,35.0942166 0,27.5 C0,19.9057117 3.02259112,13.0295284 7.90811019,8.05455668 C12.7926748,3.07859691 19.5438601,0 27,0 L27.0000203,3.18739876e-05 Z" id="Path"></path>
                        </g>
                    </g>
                </g>
            </g>
        </g>
    </g>
</svg>